<?xml version="1.0" encoding="utf-8"?>
<!-- Generator: Adobe Illustrator 22.1.0, SVG Export Plug-In . SVG Version: 6.00 Build 0)  -->
<svg version="1.1" id="Capa_1" xmlns="http://www.w3.org/2000/svg" xmlns:xlink="http://www.w3.org/1999/xlink" x="0px" y="0px"
	 viewBox="0 0 75 75" style="enable-background:new 0 0 75 75;" xml:space="preserve">
<style type="text/css">
	.st0{fill:#FFFFFF;}
</style>
<g>
	<path id="Behance" class="st0" d="M63.7,23H47.5v-4h16.3V23L63.7,23z M36.6,39.6c1,1.7,1.6,3.6,1.6,5.9s-0.6,4.6-1.8,6.5
		c-0.8,1.2-1.7,2.4-2.9,3.1c-1.2,1-2.8,1.7-4.6,2s-3.7,0.6-5.7,0.6H5V17.3h19.5c4.9,0.1,8.4,1.5,10.4,4.3c1.2,1.7,1.9,3.8,1.9,6.2
		c0,2.5-0.7,4.5-1.9,5.9c-0.7,0.9-1.7,1.6-3,2.4C34,36.8,35.6,37.9,36.6,39.6z M14.3,33.2h8.5c1.8,0,3.1-0.3,4.3-1
		c1.1-0.7,1.7-1.9,1.7-3.6c0-1.9-0.7-3.1-2.1-3.7c-1.2-0.4-2.8-0.7-4.8-0.7h-7.5C14.3,24.2,14.3,33.2,14.3,33.2z M29.6,45
		c0-2.1-0.9-3.6-2.6-4.4c-1-0.4-2.4-0.7-4-0.7h-8.6v10.8h8.5c1.8,0,3.1-0.2,4.1-0.7C28.7,49.1,29.6,47.4,29.6,45z M69.8,38.3
		c0.2,1.3,0.3,3.3,0.2,5.7H48.9c0.1,2.9,1.1,4.9,3,6.2c1.1,0.8,2.6,1.1,4.1,1.1c1.7,0,3.1-0.4,4.3-1.3c0.6-0.4,1.1-1.1,1.6-2h7.7
		c-0.2,1.7-1.1,3.5-2.8,5.3c-2.6,2.8-6.3,4.3-10.9,4.3c-3.8,0-7.3-1.2-10.2-3.6c-2.9-2.4-4.4-6.3-4.4-11.7c0-5,1.3-8.9,4-11.6
		c2.7-2.7,6.2-4,10.3-4c2.5,0,4.8,0.4,6.8,1.3c2,0.9,3.7,2.4,5,4.3C68.7,34.1,69.4,36.1,69.8,38.3z M62.1,39.1c-0.1-2-0.8-3.6-2-4.6
		c-1.2-1-2.7-1.6-4.5-1.6c-1.9,0-3.5,0.6-4.5,1.7c-1.1,1.1-1.8,2.6-2,4.5H62.1L62.1,39.1z"/>
</g>
</svg>
