<?xml version="1.0" encoding="utf-8"?>
<!-- Generator: Adobe Illustrator 22.1.0, SVG Export Plug-In . SVG Version: 6.00 Build 0)  -->
<svg version="1.1" id="Capa_1" xmlns="http://www.w3.org/2000/svg" xmlns:xlink="http://www.w3.org/1999/xlink" x="0px" y="0px"
	 viewBox="0 0 75 75" style="enable-background:new 0 0 75 75;" xml:space="preserve">
<style type="text/css">
	.st0{fill:#FFFFFF;}
</style>
<g>
	<g>
		<g>
			<path class="st0" d="M45.5,16.5H29.6c-7.3,0-13.1,5.9-13.1,13.1v15.8c0,7.3,5.9,13.1,13.1,13.1h15.8c7.3,0,13.1-5.9,13.1-13.1
				V29.6C58.6,22.4,52.7,16.5,45.5,16.5z M54.6,45.5c0,5.1-4.1,9.2-9.2,9.2H29.6c-5.1,0-9.2-4.1-9.2-9.2V29.6c0-5.1,4.1-9.2,9.2-9.2
				h15.8c5.1,0,9.2,4.1,9.2,9.2V45.5z"/>
		</g>
	</g>
	<g>
		<g>
			<path class="st0" d="M37.5,27C31.7,27,27,31.7,27,37.5s4.7,10.5,10.5,10.5s10.5-4.7,10.5-10.5S43.4,27,37.5,27z M37.5,44.1
				c-3.6,0-6.6-2.9-6.6-6.6c0-3.6,2.9-6.6,6.6-6.6c3.6,0,6.6,2.9,6.6,6.6C44.1,41.2,41.2,44.1,37.5,44.1z"/>
		</g>
	</g>
	<g>
		<g>
			<circle class="st0" cx="48.9" cy="26.2" r="1.4"/>
		</g>
	</g>
</g>
</svg>
