<?xml version="1.0" encoding="utf-8"?>
<!-- Generator: Adobe Illustrator 22.1.0, SVG Export Plug-In . SVG Version: 6.00 Build 0)  -->
<svg version="1.1" id="Livello_1" xmlns="http://www.w3.org/2000/svg" xmlns:xlink="http://www.w3.org/1999/xlink" x="0px" y="0px"
	 viewBox="0 0 2000 200" style="enable-background:new 0 0 2000 200;" xml:space="preserve">
<style type="text/css">
	.st0{fill:none;stroke:#FC4347;stroke-miterlimit:10;}
</style>
<g>
	<path class="st0" d="M-70.3,64c15.7,0,15.7,72,31.4,72c15.7,0,15.7-72,31.4-72c15.7,0,15.7,72,31.4,72c15.7,0,15.7-72,31.4-72
		c15.7,0,15.7,72,31.4,72c15.7,0,15.7-72,31.4-72c15.7,0,15.7,72,31.4,72c15.7,0,15.7-72,31.4-72c15.7,0,15.7,72,31.4,72
		c15.7,0,15.7-72,31.4-72c15.7,0,15.7,72,31.4,72c15.7,0,15.7-72,31.4-72c15.7,0,15.7,72,31.4,72c15.7,0,15.7-72,31.4-72
		c15.7,0,15.7,72,31.4,72c15.7,0,15.7-72,31.4-72c15.7,0,15.7,72,31.4,72c15.7,0,15.7-72,31.4-72c15.7,0,15.7,72,31.4,72
		c15.7,0,15.7-72,31.4-72c15.7,0,15.7,72,31.4,72c15.7,0,15.7-72,31.4-72c15.7,0,15.7,72,31.4,72c15.7,0,15.7-72,31.4-72
		c15.7,0,15.7,72,31.4,72c15.7,0,15.7-72,31.4-72c15.7,0,15.7,72,31.4,72c15.7,0,15.7-72,31.4-72c15.7,0,15.7,72,31.4,72
		c15.7,0,15.7-72,31.4-72c15.7,0,15.7,72,31.4,72c15.7,0,15.7-72,31.4-72c15.7,0,15.7,72,31.4,72c15.7,0,15.7-72,31.4-72
		c15.7,0,15.7,72,31.4,72c15.7,0,15.7-72,31.4-72c15.7,0,15.7,72,31.4,72c15.7,0,15.7-72,31.4-72s15.7,72,31.4,72
		c15.7,0,15.7-72,31.4-72c15.7,0,15.7,72,31.4,72c15.7,0,15.7-72,31.4-72c15.7,0,15.7,72,31.4,72c15.7,0,15.7-72,31.4-72
		c15.7,0,15.7,72,31.4,72c15.7,0,15.7-72,31.4-72c15.7,0,15.7,72,31.4,72c15.7,0,15.7-72,31.4-72c15.7,0,15.7,72,31.4,72
		c15.7,0,15.7-72,31.4-72c15.7,0,15.7,72,31.4,72c15.7,0,15.7-72,31.4-72c15.7,0,15.7,72,31.4,72c15.7,0,15.7-72,31.4-72
		c15.7,0,15.7,72,31.4,72c15.7,0,15.7-72,31.4-72c15.7,0,15.7,72,31.4,72c15.7,0,15.7-72,31.4-72c15.7,0,15.7,72,31.4,72
		c15.7,0,15.7-72,31.4-72c15.7,0,15.7,72,31.4,72c15.7,0,15.7-72,31.4-72c15.7,0,15.7,72,31.4,72c15.7,0,15.7-72,31.4-72
		c15.7,0,15.7,72,31.4,72c15.7,0,15.7-72,31.4-72c15.7,0,15.7,72,31.4,72"/>
</g>
</svg>
