<?xml version="1.0" encoding="utf-8"?>
<!-- Generator: Adobe Illustrator 22.1.0, SVG Export Plug-In . SVG Version: 6.00 Build 0)  -->
<svg version="1.1" id="Capa_1" xmlns="http://www.w3.org/2000/svg" xmlns:xlink="http://www.w3.org/1999/xlink" x="0px" y="0px"
	 viewBox="0 0 75 75" style="enable-background:new 0 0 75 75;" xml:space="preserve">
<style type="text/css">
	.st0{fill:#FFFFFF;}
</style>
<g>
	<path id="Vimeo" class="st0" d="M54.6,16.5c-6.7-0.2-11.3,3.6-13.6,11.3c1.2-0.5,2.4-0.8,3.6-0.8c2.4,0,3.6,1.4,3.3,4.2
		c-0.2,1.7-1.2,4.1-3.3,7.3c-2,3.2-3.6,4.8-4.5,4.8c-1.3,0-2.5-2.5-3.6-7.4c-0.4-1.4-1-5.1-2-11.1c-0.9-5.5-3.2-8.1-7-7.7
		c-1.6,0.2-4,1.6-7.2,4.4c-2.3,2.1-4.7,4.2-7,6.4l2.3,2.8c2.2-1.5,3.5-2.3,3.8-2.3c1.7,0,3.3,2.6,4.7,7.9c1.3,4.8,2.6,9.6,3.9,14.4
		c2,5.2,4.3,7.9,7.2,7.9c4.5,0,10.1-4.3,16.7-12.9c6.4-8.2,9.7-14.7,9.8-19.4C62,19.8,59.6,16.7,54.6,16.5z"/>
</g>
</svg>
